# xmcd
#
# Track frame offsets:
#	150
#	13704
#	28451
#	42103
#	57086
#	72718
#	86730
#	100444
#	115848
#	130454
#	144915
#	158897
#	174274
#	189492
#	203639
#	219179
#	234582
#	250132
#	264759
#	281288
#	296913
#	311440
#	324308
#	341109
#
# Disc length: 4780 seconds
#
# Revision: 0
# Processed by: cddbd v1.5.2PL0 Copyright (c) Steve Scherf et al.
# Submitted via: EasyCDDAExtractor 12.0.1.1
#
DISCID=6012aa18
DTITLE=Various Artist - Running in another direction
DYEAR=2009
DGENRE=soul
TTITLE0=Barbara pennington - Running in another direction
TTITLE1=L.J. Johnson - Dancing on the edge of a dream
TTITLE2=Evelyn thomas - Doomsday
TTITLE3=The exciters - Swallow your pride
TTITLE4=Loleatta Holloway - Heartstealer
TTITLE5=Tyrone ashley - Just another rumour
TTITLE6=Carol woods - Heading down fools road
TTITLE7=Voices with soul - Like a lady
TTITLE8=Doris jones - Stranded in the wilderness
TTITLE9=James wells - True love is my destiny
TTITLE10=Bettye lavette - Have a heart
TTITLE11=Donna williams - Make me fly away
TTITLE12=The four vandals - Without the music
TTITLE13=The originals - Take the only way out
TTITLE14=Peter lamarr and gina foster - Miracles
TTITLE15=The velvettes - Running out of luck
TTITLE16=Tommy hunt - Nothing but the good times
TTITLE17=Ebony alleyne - All the love in the world
TTITLE18=Tammy lavette - Seven days
TTITLE19=Delroy G. Pinnock - Halfway to your heart
TTITLE20=Barbara pennington - Fan the flame
TTITLE21=The concentrations - Man on the spot
TTITLE22=Laverta lewis - Better time ahead
TTITLE23=Brenda holloway - For all the right reasons
EXTD=
EXTT0=
EXTT1=
EXTT2=
EXTT3=
EXTT4=
EXTT5=
EXTT6=
EXTT7=
EXTT8=
EXTT9=
EXTT10=
EXTT11=
EXTT12=
EXTT13=
EXTT14=
EXTT15=
EXTT16=
EXTT17=
EXTT18=
EXTT19=
EXTT20=
EXTT21=
EXTT22=
EXTT23=
PLAYORDER=
